<svg width="695" height="83" viewBox="0 0 695 83" fill="none" xmlns="http://www.w3.org/2000/svg">
<path d="M682.24 27.64V21.78H680V20.52H685.83V21.78H683.59V27.64H682.24Z" fill="#2A3B8E"/>
<path d="M687.42 27.64V20.52H688.62L691 25.21L693.35 20.48H694.56V27.6H693.3V23.35L691.24 27.6H690.76L688.69 23.35V27.6L687.42 27.64Z" fill="#2A3B8E"/>
<path d="M160.08 42.74C161.816 40.1996 162.705 37.1757 162.62 34.1C162.651 31.986 162.267 29.8865 161.49 27.92C160.759 26.0996 159.554 24.508 158 23.31C156.277 22.0202 154.246 21.2033 152.11 20.94C151.531 20.8458 150.946 20.7857 150.36 20.76C149.74 20.76 149.22 20.71 148.82 20.71H131.82V61.82H138.7V47.46H148.47L155.47 61.82H163.26L155.68 46.21C157.444 45.4906 158.969 44.2878 160.08 42.74V42.74ZM138.76 27.21H148.58C148.96 27.21 149.39 27.21 149.86 27.21C150.306 27.2345 150.748 27.3049 151.18 27.42C152.21 27.6424 153.148 28.1725 153.87 28.94C154.521 29.6407 155 30.4828 155.27 31.4C155.542 32.2746 155.683 33.1843 155.69 34.1C155.685 35.0126 155.543 35.9192 155.27 36.79C154.998 37.7033 154.519 38.5416 153.87 39.24C153.147 40.0044 152.209 40.531 151.18 40.75C150.749 40.8721 150.307 40.9492 149.86 40.98C149.39 40.98 148.96 41.04 148.58 41.04H138.76V27.21Z" fill="#2A3B8E"/>
<path d="M190.75 32.38C188.323 30.824 185.482 30.0395 182.6 30.13C179.795 30.0717 177.028 30.7843 174.6 32.19C172.293 33.5678 170.424 35.5721 169.21 37.97C167.837 40.6897 167.15 43.704 167.21 46.75C167.159 49.6355 167.847 52.4861 169.21 55.03C170.489 57.3819 172.402 59.3287 174.73 60.65C177.246 62.0298 180.082 62.7198 182.95 62.65C185.833 62.676 188.663 61.8706 191.1 60.33C193.56 58.7997 195.474 56.532 196.57 53.85L189.78 51.85C189.179 53.2009 188.186 54.3401 186.93 55.12C185.615 55.8768 184.117 56.2542 182.6 56.21C181.469 56.2841 180.337 56.091 179.295 55.6463C178.252 55.2015 177.329 54.5177 176.6 53.65C175.447 52.0961 174.77 50.2412 174.65 48.31H197C197.328 45.0515 196.907 41.7612 195.77 38.69C194.795 36.1149 193.04 33.9088 190.75 32.38ZM182.89 36.21C185.383 36.21 187.21 36.98 188.37 38.52C189.294 39.907 189.845 41.5084 189.97 43.17H174.82C175.051 41.5951 175.666 40.1012 176.61 38.82C177.983 37.08 180.077 36.21 182.89 36.21Z" fill="#2A3B8E"/>
<path d="M229.22 37.93C228.786 36.5747 228.131 35.3008 227.28 34.16C226.341 32.9291 225.129 31.9329 223.74 31.25C221.973 30.4308 220.037 30.0402 218.09 30.11C215.522 30.0223 212.984 30.6787 210.78 32C209.738 32.6595 208.804 33.4758 208.01 34.42V30.99H201.87V61.82H208.87V45.98C208.827 44.4101 209.036 42.8435 209.49 41.34C209.827 40.2743 210.398 39.2972 211.16 38.48C211.812 37.8159 212.61 37.3126 213.49 37.01C214.329 36.7328 215.207 36.5911 216.09 36.59C217.466 36.5163 218.829 36.8842 219.98 37.64C220.932 38.3297 221.681 39.2621 222.15 40.34C222.637 41.4208 222.951 42.5716 223.08 43.75C223.205 44.8223 223.272 45.9005 223.28 46.98V61.82H230.28V44.61C230.268 43.6407 230.204 42.6727 230.09 41.71C229.931 40.4235 229.639 39.1568 229.22 37.93V37.93Z" fill="#2A3B8E"/>
<path d="M246.09 20.6H239.24V30.99H233.64V36.39H239.24V49.21C239.24 50.96 239.24 52.53 239.29 53.92C239.339 55.349 239.722 56.7465 240.41 58C241.178 59.4407 242.417 60.574 243.92 61.21C245.579 61.9131 247.359 62.2834 249.16 62.3C251.172 62.3451 253.183 62.1775 255.16 61.8V56.03C253.462 56.3123 251.736 56.3895 250.02 56.26C249.358 56.2382 248.712 56.0522 248.139 55.7188C247.567 55.3854 247.086 54.9151 246.74 54.35C246.345 53.6557 246.141 52.8688 246.15 52.07C246.15 51.13 246.15 50.07 246.15 48.81V36.39H255.2V30.99H246.15L246.09 20.6Z" fill="#2A3B8E"/>
<path d="M285.51 35.8701C284.552 33.8886 282.901 32.3268 280.87 31.4801C278.575 30.5392 276.11 30.0797 273.63 30.1301C270.003 30.1301 267.117 30.9201 264.97 32.5001C262.856 34.0455 261.324 36.2576 260.62 38.7801L266.9 40.7801C267.097 40.0664 267.439 39.4011 267.905 38.8263C268.372 38.2515 268.952 37.7795 269.61 37.4401C270.848 36.8017 272.217 36.4594 273.61 36.4401C275.92 36.4401 277.55 36.9501 278.52 37.9601C279.403 38.9843 279.895 40.2878 279.91 41.6401L276.28 42.1701C274.327 42.4434 272.52 42.7434 270.86 43.07C269.389 43.3402 267.936 43.7009 266.51 44.1501C265.054 44.6016 263.697 45.3243 262.51 46.2801C261.508 47.1035 260.725 48.1614 260.23 49.3601C259.716 50.63 259.461 51.9901 259.48 53.3601C259.466 54.9872 259.876 56.5898 260.67 58.0101C261.489 59.4514 262.703 60.6279 264.17 61.4001C265.916 62.2922 267.86 62.729 269.82 62.6701C272.249 62.7635 274.661 62.226 276.82 61.1101C278.331 60.2345 279.647 59.0607 280.69 57.6601V61.81H286.69V42.8901C286.69 41.5601 286.63 40.3301 286.52 39.2001C286.389 38.0377 286.047 36.9092 285.51 35.8701V35.8701ZM279.17 52.0901C278.869 52.9155 278.418 53.6783 277.84 54.3401C277.113 55.188 276.213 55.8701 275.2 56.3401C273.95 56.9253 272.58 57.2095 271.2 57.1701C270.263 57.1972 269.331 57.0197 268.47 56.6501C267.794 56.3565 267.216 55.8782 266.8 55.2701C266.417 54.6742 266.219 53.9784 266.23 53.2701C266.219 52.6612 266.371 52.0604 266.67 51.5301C267.013 50.9993 267.467 50.549 268 50.2101C268.622 49.7943 269.294 49.4583 270 49.2101C270.929 48.9131 271.874 48.6693 272.83 48.4801C273.89 48.2601 275.17 48.0301 276.65 47.7801L279.86 47.2601C279.86 47.7901 279.86 48.3801 279.86 49.0501C279.809 50.0958 279.575 51.1246 279.17 52.0901V52.0901Z" fill="#2A3B8E"/>
<path d="M300.98 20.61H294.1V61.83H300.98V20.61Z" fill="#2A3B8E"/>
<path d="M335.32 38.02H315.85V20.72H308.97V61.82H315.85V44.47H335.32V61.82H342.17V20.72H335.32V38.02Z" fill="#2A3B8E"/>
<path d="M371.32 32.21C368.855 30.8487 366.086 30.1346 363.27 30.1346C360.454 30.1346 357.685 30.8487 355.22 32.21C352.919 33.5683 351.048 35.5472 349.82 37.92C348.556 40.5647 347.9 43.4588 347.9 46.39C347.9 49.3213 348.556 52.2154 349.82 54.86C351.025 57.2435 352.879 59.237 355.17 60.61C357.644 61.9748 360.424 62.6906 363.25 62.6906C366.076 62.6906 368.856 61.9748 371.33 60.61C373.622 59.2336 375.485 57.2459 376.71 54.87C377.971 52.2315 378.625 49.3443 378.625 46.42C378.625 43.4958 377.971 40.6086 376.71 37.97C375.492 35.5804 373.624 33.5837 371.32 32.21V32.21ZM369.32 53.47C368.561 54.325 367.631 55.0108 366.59 55.4829C365.549 55.955 364.421 56.2029 363.278 56.2104C362.135 56.218 361.003 55.985 359.956 55.5267C358.909 55.0683 357.97 54.3949 357.2 53.55C355.76 51.4503 355.056 48.9322 355.2 46.39C355.165 44.6456 355.454 42.9097 356.05 41.27C356.567 39.8799 357.49 38.6776 358.7 37.82C360.051 36.9434 361.641 36.51 363.25 36.58C364.403 36.5007 365.558 36.7011 366.616 37.1642C367.675 37.6274 368.606 38.3395 369.33 39.24C370.765 41.3386 371.468 43.8516 371.33 46.39C371.44 48.9081 370.736 51.3946 369.32 53.48V53.47Z" fill="#2A3B8E"/>
<path d="M405.11 46.83C405.153 48.3973 404.94 49.9612 404.48 51.46C404.153 52.5331 403.581 53.5156 402.81 54.33C402.161 54.9928 401.367 55.496 400.49 55.8C399.651 56.0772 398.773 56.2189 397.89 56.22C396.517 56.3071 395.152 55.9571 393.99 55.22C393.041 54.5272 392.292 53.5956 391.82 52.52C391.339 51.434 391.029 50.2805 390.9 49.1C390.771 48.0315 390.704 46.9563 390.7 45.88V30.99H383.7V48.21C383.712 49.1793 383.776 50.1473 383.89 51.11C384.03 52.3944 384.301 53.661 384.7 54.89C385.132 56.2461 385.787 57.5204 386.64 58.66C387.579 59.8909 388.791 60.8871 390.18 61.57C391.947 62.3892 393.883 62.7798 395.83 62.71C398.398 62.7977 400.936 62.1413 403.14 60.82C404.179 60.1556 405.112 59.34 405.91 58.4V61.83H412V30.99H405.09L405.11 46.83Z" fill="#2A3B8E"/>
<path d="M439.89 45.73C438.02 44.7806 436.042 44.0588 434 43.58C431.6 42.9667 429.797 42.4534 428.59 42.04C427.706 41.7978 426.884 41.3681 426.18 40.78C425.985 40.5805 425.832 40.3443 425.729 40.0851C425.626 39.8259 425.575 39.5489 425.58 39.27C425.573 38.7654 425.708 38.2691 425.97 37.8376C426.231 37.4061 426.609 37.057 427.06 36.83C428.262 36.2042 429.623 35.9501 430.97 36.1001C432.423 36.1173 433.839 36.5625 435.04 37.3801C435.537 37.7486 435.953 38.216 436.261 38.7529C436.569 39.2899 436.763 39.8847 436.83 40.5L443.83 39.24C443.594 37.4669 442.863 35.7963 441.72 34.42C440.51 33.0023 438.962 31.9121 437.22 31.25C435.184 30.4744 433.019 30.0942 430.84 30.1301C428.653 30.0806 426.48 30.4752 424.45 31.29C422.757 31.9686 421.29 33.1127 420.22 34.59C419.201 36.0554 418.673 37.8057 418.71 39.59C418.666 40.9713 419.013 42.3368 419.71 43.53C420.525 44.7497 421.66 45.7218 422.99 46.34C424.961 47.2959 427.03 48.0368 429.16 48.55C431.48 49.1634 433.2 49.67 434.32 50.07C435.144 50.2899 435.898 50.7167 436.51 51.31C436.862 51.8047 437.039 52.4033 437.01 53.01C437.025 53.5376 436.909 54.0606 436.671 54.532C436.434 55.0034 436.083 55.4082 435.65 55.71C434.506 56.4367 433.163 56.7865 431.81 56.71C430.152 56.7692 428.516 56.3114 427.13 55.4C425.906 54.5444 425.049 53.2591 424.73 51.8L417.73 52.8801C417.923 54.3171 418.408 55.6997 419.154 56.9429C419.9 58.1861 420.893 59.2639 422.07 60.1101C424.81 61.9269 428.056 62.8268 431.34 62.68C435.34 62.68 438.457 61.7934 440.69 60.02C441.798 59.1613 442.684 58.0493 443.274 56.7774C443.864 55.5055 444.14 54.1107 444.08 52.71C444.12 51.2849 443.774 49.8754 443.08 48.6301C442.299 47.3923 441.196 46.3899 439.89 45.73Z" fill="#2A3B8E"/>
<path d="M457.24 20.61H450.36V26.32H457.24V20.61Z" fill="#2A3B8E"/>
<path d="M457.24 30.9901H450.36V61.8201H457.24V30.9901Z" fill="#2A3B8E"/>
<path d="M492.52 37.93C492.086 36.5747 491.431 35.3008 490.58 34.16C489.634 32.9097 488.408 31.8991 487 31.21C485.229 30.3896 483.29 29.999 481.34 30.07C478.775 29.9837 476.24 30.64 474.04 31.96C472.998 32.6195 472.064 33.4358 471.27 34.38V30.95H465.13V61.78H472.13V45.98C472.082 44.4098 472.291 42.8424 472.75 41.34C473.087 40.2743 473.657 39.2972 474.42 38.48C475.072 37.8159 475.87 37.3126 476.75 37.01C477.589 36.7328 478.467 36.5911 479.35 36.59C480.725 36.5177 482.088 36.8855 483.24 37.64C484.189 38.3325 484.938 39.2641 485.41 40.34C485.897 41.4208 486.211 42.5716 486.34 43.75C486.465 44.8223 486.532 45.9005 486.54 46.98V61.82H493.54V44.61C493.54 43.86 493.47 42.9 493.35 41.71C493.203 40.4249 492.925 39.1583 492.52 37.93V37.93Z" fill="#2A3B8E"/>
<path d="M521.52 33.21C521.151 32.8751 520.764 32.5612 520.36 32.27C518.188 30.7955 515.604 30.0496 512.98 30.14C510.294 30.076 507.651 30.8179 505.39 32.27C503.217 33.7011 501.485 35.7095 500.39 38.07C499.236 40.6937 498.64 43.5287 498.64 46.395C498.64 49.2613 499.236 52.0962 500.39 54.72C501.467 57.0728 503.165 59.0882 505.3 60.55C507.551 61.9513 510.149 62.694 512.8 62.694C515.451 62.694 518.049 61.9513 520.3 60.55C520.43 60.46 520.55 60.36 520.67 60.26V63.21C520.754 64.4928 520.451 65.7713 519.8 66.88C519.173 67.8659 518.264 68.6397 517.19 69.1C515.983 69.6257 514.676 69.8849 513.36 69.86C512.166 69.8641 510.987 69.5866 509.92 69.05C508.848 68.4993 507.976 67.6245 507.43 66.55L501.09 69.69C501.876 71.0796 502.921 72.3053 504.17 73.3C505.439 74.3074 506.874 75.0857 508.41 75.6C509.998 76.1349 511.664 76.4052 513.34 76.4C515.493 76.4214 517.636 76.1042 519.69 75.46C521.495 74.8903 523.142 73.9076 524.5 72.59C525.83 71.2334 526.74 69.5214 527.12 67.66C527.277 66.9682 527.387 66.2666 527.45 65.56C527.52 64.85 527.55 64.1 527.55 63.32V30.13H521.55L521.52 33.21ZM518.25 55.21C516.94 56.1123 515.369 56.5586 513.78 56.48C512.198 56.5463 510.639 56.0738 509.36 55.14C508.169 54.1972 507.27 52.9347 506.77 51.5C506.19 49.8527 505.906 48.1161 505.93 46.37C505.91 44.6355 506.201 42.9116 506.79 41.28C507.298 39.8308 508.22 38.5621 509.44 37.63C510.77 36.6821 512.378 36.2037 514.01 36.27C515.539 36.2004 517.047 36.6477 518.29 37.54C519.44 38.4487 520.29 39.6821 520.73 41.08C521.783 44.528 521.783 48.212 520.73 51.66C520.285 53.0689 519.42 54.3078 518.25 55.21V55.21Z" fill="#2A3B8E"/>
<path d="M561.32 24.41C558.964 22.4721 556.093 21.2659 553.06 20.94C552.11 20.83 551.12 20.76 550.11 20.74H548.06H535V61.85H548.1H550.16C551.143 61.8366 552.124 61.7698 553.1 61.65C556.134 61.3282 559.006 60.1214 561.36 58.18C563.654 56.2426 565.419 53.7551 566.49 50.95C568.81 44.7465 568.81 37.9135 566.49 31.71C565.417 28.876 563.637 26.3633 561.32 24.41V24.41ZM560.04 47.41C559.522 49.2565 558.6 50.9646 557.34 52.41C556.1 53.7882 554.429 54.7048 552.6 55.01C551.823 55.1484 551.038 55.232 550.25 55.26C549.36 55.26 548.64 55.32 548.06 55.32H542V27.21H548.1C548.68 27.21 549.4 27.21 550.29 27.21C551.08 27.229 551.866 27.3194 552.64 27.48C554.444 27.7855 556.096 28.6785 557.34 30.02C558.617 31.4355 559.551 33.1258 560.07 34.96C561.237 39.0246 561.237 43.3354 560.07 47.4L560.04 47.41Z" fill="#41B475"/>
<path d="M596.15 32.3801C593.722 30.8257 590.881 30.0414 588 30.1301C585.195 30.0707 582.428 30.7833 580 32.19C577.69 33.5672 575.817 35.5714 574.6 37.97C573.252 40.6966 572.587 43.7095 572.66 46.75C572.609 49.6355 573.297 52.4861 574.66 55.03C575.946 57.3804 577.861 59.3264 580.19 60.65C582.706 62.0299 585.542 62.7198 588.41 62.65C591.293 62.6761 594.123 61.8706 596.56 60.33C599.017 58.7992 600.928 56.5313 602.02 53.8501L595.23 51.8501C594.636 53.2023 593.646 54.3424 592.39 55.12C591.057 55.8852 589.536 56.2628 588 56.21C586.869 56.2826 585.738 56.0887 584.695 55.6441C583.653 55.1994 582.73 54.5165 582 53.65C580.834 52.0991 580.14 50.2452 580 48.31H602.31C602.628 45.0517 602.208 41.7635 601.08 38.69C600.126 36.1292 598.404 33.9256 596.15 32.3801V32.3801ZM588.29 36.21C590.78 36.21 592.6 36.98 593.77 38.52C594.694 39.9071 595.245 41.5084 595.37 43.17H580.22C580.443 41.5947 581.055 40.0997 582 38.82C583.38 37.03 585.47 36.21 588.29 36.21Z" fill="#41B475"/>
<path d="M631.9 35.87C630.942 33.8886 629.291 32.3268 627.26 31.48C624.968 30.5391 622.507 30.0796 620.03 30.13C616.39 30.13 613.5 30.92 611.36 32.5C609.246 34.0455 607.714 36.2576 607.01 38.78L613.29 40.78C613.485 40.0616 613.826 39.3913 614.292 38.8113C614.759 38.2313 615.34 37.7542 616 37.41C617.238 36.7716 618.607 36.4293 620 36.41C622.3 36.41 623.937 36.9167 624.91 37.93C625.785 38.959 626.276 40.2595 626.3 41.61L622.67 42.14C620.717 42.4133 618.907 42.7133 617.24 43.04C615.77 43.3125 614.317 43.6732 612.89 44.12C611.434 44.5715 610.077 45.2942 608.89 46.25C607.892 47.0768 607.109 48.1338 606.61 49.33C606.099 50.6007 605.848 51.9607 605.87 53.33C605.852 54.9563 606.259 56.559 607.05 57.98C607.871 59.4193 609.085 60.5951 610.55 61.37C612.296 62.2621 614.24 62.699 616.2 62.64C618.612 62.7279 621.007 62.1905 623.15 61.08C624.663 60.207 625.98 59.0327 627.02 57.63V61.78H633.02V42.89C633.028 41.6579 632.971 40.4262 632.85 39.2C632.743 38.0407 632.42 36.9115 631.9 35.87ZM625.57 52.09C625.265 52.9136 624.815 53.6758 624.24 54.34C623.509 55.1835 622.61 55.8648 621.6 56.34C620.349 56.9224 618.98 57.2065 617.6 57.17C616.663 57.1949 615.732 57.0175 614.87 56.65C614.197 56.3524 613.619 55.8749 613.2 55.27C612.817 54.6742 612.619 53.9783 612.63 53.27C612.617 52.6597 612.773 52.0576 613.08 51.53C613.401 51.0045 613.835 50.5571 614.35 50.22C614.972 49.8034 615.644 49.4674 616.35 49.22C617.279 48.923 618.224 48.6793 619.18 48.49C620.24 48.27 621.52 48.04 623 47.79L626.22 47.27C626.22 47.8 626.22 48.39 626.16 49.06C626.139 50.0965 625.94 51.1215 625.57 52.09V52.09Z" fill="#41B475"/>
<path d="M647.37 20.61H640.49V61.83H647.37V20.61Z" fill="#41B475"/>
<path d="M679 48.6301C678.214 47.3929 677.108 46.391 675.8 45.73C673.926 44.7807 671.945 44.059 669.9 43.58C667.51 42.97 665.7 42.46 664.49 42.04C663.606 41.7955 662.785 41.366 662.08 40.78C661.885 40.5805 661.732 40.3443 661.629 40.0851C661.526 39.8259 661.475 39.5489 661.48 39.27C661.475 38.7646 661.612 38.268 661.876 37.8367C662.139 37.4053 662.518 37.0565 662.97 36.83C664.172 36.2036 665.533 35.9495 666.88 36.1001C668.333 36.1191 669.748 36.5641 670.95 37.3801C671.446 37.7492 671.86 38.2169 672.166 38.7538C672.473 39.2908 672.665 39.8853 672.73 40.5001L679.73 39.24C679.498 37.4657 678.766 35.794 677.62 34.42C676.413 32.9991 674.864 31.9083 673.12 31.2501C671.084 30.4734 668.919 30.0933 666.74 30.1301C664.554 30.0825 662.38 30.4771 660.35 31.29C658.657 31.9686 657.19 33.1127 656.12 34.59C655.106 36.0575 654.577 37.8064 654.61 39.59C654.566 40.9713 654.913 42.3368 655.61 43.53C656.427 44.7477 657.561 45.7192 658.89 46.34C660.862 47.2943 662.931 48.0351 665.06 48.55C667.38 49.1634 669.103 49.67 670.23 50.07C671.052 50.2877 671.803 50.715 672.41 51.31C672.762 51.8047 672.939 52.4033 672.91 53.01C672.928 53.538 672.813 54.062 672.575 54.5338C672.337 55.0057 671.985 55.4101 671.55 55.71C670.406 56.4367 669.063 56.7865 667.71 56.71C666.052 56.7692 664.416 56.3115 663.03 55.4C661.81 54.5403 660.954 53.2568 660.63 51.8L653.63 52.8801C653.829 54.3188 654.319 55.702 655.07 56.945C655.822 58.1881 656.819 59.265 658 60.1101C660.743 61.9283 663.993 62.8282 667.28 62.68C671.28 62.68 674.397 61.7934 676.63 60.02C677.734 59.1586 678.616 58.0456 679.202 56.774C679.788 55.5024 680.062 54.1089 680 52.71C680.036 51.2852 679.691 49.8767 679 48.6301V48.6301Z" fill="#41B475"/>
<path d="M78.82 68.91C78.82 69.5068 78.583 70.0791 78.161 70.501C77.7391 70.923 77.1668 71.16 76.57 71.16H13.51C12.9133 71.16 12.341 70.923 11.919 70.501C11.4971 70.0791 11.26 69.5068 11.26 68.91V41.91C11.2555 41.5904 11.3192 41.2734 11.4468 40.9803C11.5744 40.6871 11.763 40.4245 12 40.21L43.52 11.84C43.9335 11.4731 44.4672 11.2705 45.02 11.2705C45.5729 11.2705 46.1065 11.4731 46.52 11.84L67.64 30.84L76.05 23.27L54.05 3.47003C51.569 1.23606 48.3486 -0.00012207 45.01 -0.00012207C41.6714 -0.00012207 38.4511 1.23606 35.97 3.47003L22.43 15.66V11.14C22.43 10.5433 22.193 9.971 21.771 9.54904C21.3491 9.12708 20.7767 8.89001 20.18 8.89001H13.48C12.8833 8.89001 12.311 9.12708 11.889 9.54904C11.4671 9.971 11.23 10.5433 11.23 11.14V25.73L4.44002 31.84C3.0392 33.1123 1.9204 34.6639 1.15568 36.3948C0.390969 38.1258 -0.00271115 39.9977 1.40525e-05 41.89V68.89C1.40525e-05 72.4731 1.42338 75.9094 3.957 78.4431C6.49062 80.9767 9.92693 82.4 13.51 82.4H76.57C80.1531 82.4 83.5894 80.9767 86.123 78.4431C88.6566 75.9094 90.08 72.4731 90.08 68.89V50.35L78.82 60.48V68.91Z" fill="#2A3B8E"/>
<path d="M106.39 20.21L101.33 15.66C100.918 15.291 100.384 15.087 99.8301 15.087C99.2766 15.087 98.7426 15.291 98.3301 15.66L63.4901 47.02L46.5601 31.78C46.1476 31.411 45.6135 31.207 45.0601 31.207C44.5066 31.207 43.9726 31.411 43.5601 31.78L38.5001 36.33C38.2662 36.5418 38.0793 36.8003 37.9513 37.0888C37.8234 37.3773 37.7573 37.6894 37.7573 38.005C37.7573 38.3206 37.8234 38.6327 37.9513 38.9211C38.0793 39.2096 38.2662 39.4681 38.5001 39.68L60.1701 59.21C61.0768 60.0314 62.2566 60.4864 63.4801 60.4864C64.7036 60.4864 65.8834 60.0314 66.7901 59.21L106.39 23.57C106.627 23.3589 106.817 23.1001 106.946 22.8106C107.076 22.521 107.143 22.2073 107.143 21.89C107.143 21.5727 107.076 21.259 106.946 20.9694C106.817 20.6799 106.627 20.4211 106.39 20.21Z" fill="#41B475"/>
</svg>
